<?xml version="1.0" encoding="UTF-8"?>
<svg version="1.1" xmlns="http://www.w3.org/2000/svg" width="42" height="42">
<path d="M0 0 C2.10084701 -0.01718633 4.2001085 -0.06106997 6.30053711 -0.10522461 C7.64232244 -0.1153545 8.98412112 -0.12386968 10.32592773 -0.13061523 C12.15281128 -0.15248901 12.15281128 -0.15248901 14.01660156 -0.17480469 C17.91449401 0.38203709 19.53314351 1.55821466 22.30639648 4.29516602 C24.44707683 8.57652671 23.57446373 14.23653065 23.6015625 18.98876953 C23.61874883 21.08961654 23.66263247 23.18887803 23.70678711 25.28930664 C23.716917 26.63109197 23.72543218 27.97289065 23.73217773 29.31469727 C23.74676025 30.53261963 23.76134277 31.75054199 23.77636719 33.00537109 C23.21952541 36.90326354 22.04334784 38.52191304 19.30639648 41.29516602 C15.02503579 43.43584636 9.36503185 42.56323326 4.61279297 42.59033203 C2.51194596 42.60751836 0.41268447 42.65140201 -1.68774414 42.69555664 C-3.02952947 42.70568654 -4.37132815 42.71420172 -5.71313477 42.72094727 C-7.54001831 42.74282104 -7.54001831 42.74282104 -9.40380859 42.76513672 C-13.30170104 42.20829494 -14.92035054 41.03211737 -17.69360352 38.29516602 C-19.83428386 34.01380532 -18.96167076 28.35380138 -18.98876953 23.6015625 C-19.00595586 21.50071549 -19.04983951 19.401454 -19.09399414 17.30102539 C-19.10412404 15.95924006 -19.11263922 14.61744138 -19.11938477 13.27563477 C-19.13396729 12.0577124 -19.1485498 10.83979004 -19.16357422 9.58496094 C-18.60673244 5.68706849 -17.43055487 4.06841899 -14.69360352 1.29516602 C-10.41224282 -0.84551433 -4.75223888 0.02709877 0 0 Z " fill="#020202" transform="translate(18.693603515625,-0.295166015625)"/>
<path d="M0 0 C0.99 0.33 1.98 0.66 3 1 C2.34 2.65 1.68 4.3 1 6 C2.65 7.65 4.3 9.3 6 11 C5.67 11.99 5.34 12.98 5 14 C2.53199953 12.84826645 0.95216435 11.95216435 -1 10 C-4.10835885 10.10718479 -5.35608491 11.28486793 -7.8125 13.25 C-10.25166851 15.74885552 -10.25166851 15.74885552 -10.0625 18.5625 C-8.77626021 21.51328541 -7.57972439 23.06520671 -5 25 C-2.45709375 25.58350505 -2.45709375 25.58350505 0 25 C1.81476003 23.60414215 1.81476003 23.60414215 3 22 C3.99 22.33 4.98 22.66 6 23 C4.97431136 25.70408823 4.02736589 26.97795525 1.75 28.8125 C-1.89524662 30.38658377 -3.2652219 30.41921568 -7 29 C-10.70072412 25.85140004 -13.50308623 22.70370435 -14.875 18 C-13.50209312 13.29289071 -10.40491719 10.42463679 -7 7 C-6.33226562 6.31808594 -5.66453125 5.63617187 -4.9765625 4.93359375 C-3.33262747 3.27288387 -1.6750528 1.62923069 0 0 Z " fill="#EAEAEA" transform="translate(23,3)"/>
<path d="M0 0 C4.62 0 9.24 0 14 0 C14 1.32 14 2.64 14 4 C9.38 4 4.76 4 0 4 C0 2.68 0 1.36 0 0 Z " fill="#CFCFCF" transform="translate(19,19)"/>
</svg>
