<?xml version="1.0" encoding="UTF-8"?>
<svg version="1.1" xmlns="http://www.w3.org/2000/svg" width="50" height="50">
<path d="M0 0 C1.69154647 -0.01653294 3.38302383 -0.04378815 5.07421875 -0.08203125 C7.51892155 -0.13700599 9.96198756 -0.15870539 12.40722656 -0.17333984 C13.1574408 -0.19600922 13.90765503 -0.21867859 14.68060303 -0.24203491 C18.65811224 -0.2261545 21.20518 0.28542568 24.25976562 2.7578125 C29.50366481 8.11369184 28.097085 15.45050189 28.14794922 22.55224609 C28.16448216 24.24379256 28.19173737 25.93526993 28.22998047 27.62646484 C28.28495521 30.07116765 28.30665461 32.51423366 28.32128906 34.95947266 C28.34395844 35.70968689 28.36662781 36.45990112 28.38998413 37.23284912 C28.37410372 41.21035833 27.86252354 43.7574261 25.39013672 46.81201172 C20.03425738 52.05591091 12.69744733 50.6493311 5.59570312 50.70019531 C3.90415666 50.71672825 2.21267929 50.74398346 0.52148438 50.78222656 C-1.92321843 50.8372013 -4.36628444 50.8589007 -6.81152344 50.87353516 C-7.56173767 50.89620453 -8.3119519 50.9188739 -9.0848999 50.94223022 C-13.06240911 50.92634982 -15.60947688 50.41476963 -18.6640625 47.94238281 C-23.90796169 42.58650347 -22.50138188 35.24969343 -22.55224609 28.14794922 C-22.56877903 26.45640275 -22.59603424 24.76492539 -22.63427734 23.07373047 C-22.68925208 20.62902767 -22.71095148 18.18596166 -22.72558594 15.74072266 C-22.74825531 14.99050842 -22.77092468 14.24029419 -22.79428101 13.46734619 C-22.7784006 9.48983698 -22.26682042 6.94276921 -19.79443359 3.88818359 C-14.43855426 -1.3557156 -7.10174421 0.05086422 0 0 Z " fill="#FDFDFD" transform="translate(22.2021484375,-0.35009765625)"/>
<path d="M0 0 C0.99 0.33 1.98 0.66 3 1 C2.34 2.65 1.68 4.3 1 6 C2.65 7.65 4.3 9.3 6 11 C5.67 11.99 5.34 12.98 5 14 C2.53199953 12.84826645 0.95216435 11.95216435 -1 10 C-4.10835885 10.10718479 -5.35608491 11.28486793 -7.8125 13.25 C-10.25166851 15.74885552 -10.25166851 15.74885552 -10.0625 18.5625 C-8.77626021 21.51328541 -7.57972439 23.06520671 -5 25 C-2.45709375 25.58350505 -2.45709375 25.58350505 0 25 C1.81476003 23.60414215 1.81476003 23.60414215 3 22 C3.99 22.33 4.98 22.66 6 23 C4.6104538 26.35806998 3.27054981 28.32052848 0 30 C-3.78390993 30.21418358 -6.02368909 29.78446772 -9.0078125 27.38671875 C-12.0974521 24.16573819 -13.77762859 22.16986699 -14.62890625 17.69140625 C-13.72433114 12.38194366 -10.87692787 10.09888691 -7 6.5625 C-6.33226562 5.92634766 -5.66453125 5.29019531 -4.9765625 4.63476562 C-3.33240682 3.07281773 -1.67425288 1.52953687 0 0 Z " fill="#131313" transform="translate(26,8)"/>
<path d="M0 0 C4.62 0 9.24 0 14 0 C14 1.32 14 2.64 14 4 C9.38 4 4.76 4 0 4 C0 2.68 0 1.36 0 0 Z " fill="#2E2E2E" transform="translate(22,24)"/>
</svg>
